# xmcd
#
# Track frame offsets:
# 150
# 23867
# 42464
# 74975
# 99478
# 126388
# 152478
# 177313
# 194434
# 215991
# 236961
# 257626
# 287883
#
# Disc length: 4176 seconds
#
#
# Revision: 0
# Processed by: cddbd v1.5.2PL0 Copyright (c) Steve Scherf et al.
# Submitted via: FreeRIP 2.96 
#
DISCID=d4104e0d
DTITLE=T.A. Barron - Merlin und die Flügel der Freiheit CD2v4
DYEAR=2007
DGENRE=Speech
TTITLE0=18 Merlin und die Flügel der Freiheit
TTITLE1=19 Merlin und die Flügel der Freiheit
TTITLE2=20 Merlin und die Flügel der Freiheit
TTITLE3=21 Merlin und die Flügel der Freiheit
TTITLE4=22 Merlin und die Flügel der Freiheit
TTITLE5=23 Merlin und die Flügel der Freiheit
TTITLE6=24 Merlin und die Flügel der Freiheit
TTITLE7=25 Merlin und die Flügel der Freiheit
TTITLE8=26 Merlin und die Flügel der Freiheit
TTITLE9=27 Merlin und die Flügel der Freiheit
TTITLE10=28 Merlin und die Flügel der Freiheit
TTITLE11=29 Merlin und die Flügel der Freiheit
TTITLE12=30 Merlin und die Flügel der Freiheit
EXTD=gelesen von Stefan Wilkening
EXTT0=
EXTT1=
EXTT2=
EXTT3=
EXTT4=
EXTT5=
EXTT6=
EXTT7=
EXTT8=
EXTT9=
EXTT10=
EXTT11=
EXTT12=
PLAYORDER=
